<svg width="29" height="29" viewBox="0 0 29 29" fill="none" xmlns="http://www.w3.org/2000/svg">
<path d="M8.33333 22.8333C7.36111 22.8333 6.53472 22.4931 5.85417 21.8125C5.17361 21.1319 4.83333 20.3056 4.83333 19.3333H2.5V15.8333C2.5 14.55 2.95694 13.4514 3.87083 12.5375C4.78472 11.6236 5.88333 11.1667 7.16667 11.1667H11.8333V17H15.9167L20 11.925V8.83333H16.5V6.5H20C20.6417 6.5 21.1912 6.72867 21.6485 7.186C22.1058 7.64333 22.3341 8.19244 22.3333 8.83333V12.7417L17.0833 19.3333H11.8333C11.8333 20.3056 11.4931 21.1319 10.8125 21.8125C10.1319 22.4931 9.30556 22.8333 8.33333 22.8333ZM8.33333 20.5C8.66389 20.5 8.94117 20.388 9.16517 20.164C9.38917 19.94 9.50078 19.6631 9.5 19.3333H7.16667C7.16667 19.6639 7.27867 19.9412 7.50267 20.1652C7.72667 20.3892 8.00356 20.5008 8.33333 20.5ZM22.3333 22.8333C21.3611 22.8333 20.5347 22.4931 19.8542 21.8125C19.1736 21.1319 18.8333 20.3056 18.8333 19.3333C18.8333 18.3611 19.1736 17.5347 19.8542 16.8542C20.5347 16.1736 21.3611 15.8333 22.3333 15.8333C23.3056 15.8333 24.1319 16.1736 24.8125 16.8542C25.4931 17.5347 25.8333 18.3611 25.8333 19.3333C25.8333 20.3056 25.4931 21.1319 24.8125 21.8125C24.1319 22.4931 23.3056 22.8333 22.3333 22.8333ZM22.3333 20.5C22.6639 20.5 22.9412 20.388 23.1652 20.164C23.3892 19.94 23.5008 19.6631 23.5 19.3333C23.5 19.0028 23.388 18.7255 23.164 18.5015C22.94 18.2775 22.6631 18.1659 22.3333 18.1667C22.0028 18.1667 21.7255 18.2787 21.5015 18.5027C21.2775 18.7267 21.1659 19.0036 21.1667 19.3333C21.1667 19.6639 21.2787 19.9412 21.5027 20.1652C21.7267 20.3892 22.0036 20.5008 22.3333 20.5ZM4.83333 17H9.5V13.5H7.16667C6.525 13.5 5.9755 13.7287 5.51817 14.186C5.06083 14.6433 4.83256 15.1924 4.83333 15.8333V17Z" fill="white"/>
<path d="M6 7.66699V10.0003H11.8333V7.66699H6Z" fill="#FF9900"/>
</svg>
