<svg width="17" height="16" viewBox="0 0 17 16" fill="none" xmlns="http://www.w3.org/2000/svg">
<path d="M14.1866 6.72677V2.59961H10.3294V4.14247H12.6437V6.18676L9.95915 9.54249H7.24371V5.68533H1.07227V11.0853H2.61513C2.61513 12.3659 3.64884 13.3996 4.92942 13.3996C6.21 13.3996 7.24371 12.3659 7.24371 11.0853H10.6997L14.1866 6.72677ZM4.92942 11.8568C4.50513 11.8568 4.15799 11.5096 4.15799 11.0853H5.70085C5.70085 11.5096 5.35371 11.8568 4.92942 11.8568Z" fill="white"/>
<path d="M3.38672 3.37109H7.24387V4.91396H3.38672V3.37109ZM14.1868 8.77111C12.9062 8.77111 11.8725 9.80483 11.8725 11.0854C11.8725 12.366 12.9062 13.3997 14.1868 13.3997C15.4673 13.3997 16.501 12.366 16.501 11.0854C16.501 9.80483 15.4673 8.77111 14.1868 8.77111ZM14.1868 11.8568C13.7625 11.8568 13.4153 11.5097 13.4153 11.0854C13.4153 10.6611 13.7625 10.314 14.1868 10.314C14.611 10.314 14.9582 10.6611 14.9582 11.0854C14.9582 11.5097 14.611 11.8568 14.1868 11.8568Z" fill="white"/>
</svg>
