<svg width="17" height="18" viewBox="0 0 17 18" fill="none" xmlns="http://www.w3.org/2000/svg">
<path d="M8.25 17.25C6.14167 17.25 4.30436 16.5509 2.73808 15.1527C1.17181 13.7544 0.274389 12.0091 0.0458333 9.91667H1.925C2.13889 11.5056 2.84564 12.8194 4.04525 13.8583C5.24486 14.8972 6.64644 15.4167 8.25 15.4167C10.0375 15.4167 11.554 14.7939 12.7994 13.5485C14.0449 12.3031 14.6673 10.7869 14.6667 9C14.6667 7.2125 14.0439 5.69603 12.7985 4.45058C11.5531 3.20514 10.0369 2.58272 8.25 2.58333C7.19583 2.58333 6.21042 2.82778 5.29375 3.31667C4.37708 3.80556 3.60556 4.47778 2.97917 5.33333H5.5V7.16667H0V1.66667H1.83333V3.82083C2.6125 2.84306 3.56369 2.08681 4.68692 1.55208C5.81014 1.01736 6.99783 0.75 8.25 0.75C9.39583 0.75 10.4692 0.967861 11.4703 1.40358C12.4712 1.83931 13.3421 2.42719 14.0828 3.16725C14.8234 3.90853 15.4116 4.77936 15.8473 5.77975C16.2831 6.78014 16.5006 7.85356 16.5 9C16.5 10.1458 16.2821 11.2192 15.8464 12.2203C15.4107 13.2212 14.8228 14.0921 14.0828 14.8328C13.3415 15.5734 12.4706 16.1616 11.4703 16.5973C10.4699 17.0331 9.39644 17.2506 8.25 17.25ZM10.8167 12.85L7.33333 9.36667V4.41667H9.16667V8.63333L12.1 11.5667L10.8167 12.85Z" fill="#808080"/>
</svg>
