<svg width="32" height="32" viewBox="0 0 32 32" fill="none" xmlns="http://www.w3.org/2000/svg">
<path d="M13.67 2.00048C13.14 2.00048 12.72 2.42048 12.72 2.94048V6.64048C12.72 6.77043 12.6684 6.89507 12.5765 6.98696C12.4846 7.07885 12.36 7.13048 12.23 7.13048C12.1 7.13048 11.9754 7.07885 11.8835 6.98696C11.7916 6.89507 11.74 6.77043 11.74 6.64048V2.98048C11.74 2.46048 11.34 2.01048 10.83 2.00048C10.7041 1.99646 10.5786 2.0178 10.4611 2.06323C10.3435 2.10867 10.2363 2.17727 10.1458 2.26496C10.0554 2.35265 9.98342 2.45764 9.93432 2.57369C9.88521 2.68974 9.85994 2.81447 9.86001 2.94048V6.64048C9.86001 6.77043 9.80838 6.89507 9.71649 6.98696C9.6246 7.07885 9.49996 7.13048 9.37001 7.13048C9.24005 7.13048 9.11542 7.07885 9.02352 6.98696C8.93163 6.89507 8.88001 6.77043 8.88001 6.64048V2.98048C8.88001 2.46048 8.48001 2.01048 7.97001 2.00048C7.84406 1.99646 7.7186 2.0178 7.60106 2.06323C7.48353 2.10867 7.37634 2.17727 7.28585 2.26496C7.19536 2.35265 7.12342 2.45764 7.07432 2.57369C7.02521 2.68974 6.99994 2.81447 7.00001 2.94048V9.26048C6.99895 9.84797 7.13413 10.4277 7.39492 10.9541C7.6557 11.4806 8.035 11.9394 8.50301 12.2945C9.35001 12.9145 9.35001 14.9115 9.35001 14.9115V28.7115C9.35001 29.4215 9.93001 30.0015 10.64 30.0015H10.96C11.67 30.0015 12.25 29.4215 12.25 28.7115V14.9005C12.25 14.9005 12.25 12.8635 13.084 12.2935C13.5555 11.9389 13.9379 11.4794 14.2011 10.9514C14.4642 10.4234 14.6008 9.84141 14.6 9.25148V2.94048C14.6021 2.81729 14.5796 2.69492 14.5338 2.58056C14.4879 2.46621 14.4196 2.36218 14.333 2.2746C14.2463 2.18701 14.143 2.11764 14.0292 2.07056C13.9153 2.02349 13.7932 1.99966 13.67 2.00048ZM23.06 2.00048C24.3 2.00048 25.3 3.00048 25.3 4.24048V17.8905L25.29 17.8875V28.7015C25.29 29.4115 24.71 29.9915 24 29.9915H23.68C22.97 29.9915 22.39 29.4115 22.39 28.7015V16.8375C21.6288 16.4913 20.9835 15.9332 20.5312 15.2298C20.079 14.5265 19.839 13.7077 19.84 12.8715V5.22048C19.83 3.44048 21.28 2.00048 23.06 2.00048Z" fill="#EFEFEF"/>
</svg>
