<svg width="20" height="21" viewBox="0 0 20 21" fill="none" xmlns="http://www.w3.org/2000/svg">
<circle cx="10" cy="10.917" r="10" fill="#CE9618"/>
<circle cx="10" cy="10.083" r="10" fill="#FFE063"/>
<circle cx="10.209" cy="10.292" r="8.125" fill="#EBBE30"/>
<g clip-path="url(#clip0_2271_13608)">
<mask id="mask0_2271_13608" style="mask-type:alpha" maskUnits="userSpaceOnUse" x="2" y="2" width="17" height="17">
<circle cx="10.209" cy="10.291" r="8.125" fill="#EBBE30"/>
</mask>
<g mask="url(#mask0_2271_13608)">
<path d="M6.60962 5.08234C6.59536 5.07807 6.38462 5.11713 6.15161 5.27707C5.93315 5.42704 5.68984 5.65084 5.48552 5.89076L5.49382 5.8973C5.34407 6.08766 5.17329 6.30785 5.06382 6.52638C4.95432 6.74491 4.91016 6.94606 4.96643 7.12965L4.54629 7.25841C4.44512 6.92838 4.53355 6.6037 4.6709 6.32956C4.7248 6.22194 4.78694 6.11991 4.85151 6.02389C3.80122 6.02768 2.75024 5.95785 1.66797 5.84794V15.8535C1.85987 15.6794 2.06205 15.517 2.27344 15.3671L2.31985 15.3343L2.37632 15.3281C2.96309 15.2634 3.73914 15.1657 4.44927 14.9423C5.15938 14.7188 5.79043 14.371 6.12488 13.839L6.18733 13.7395L6.30474 13.7363C8.53154 13.6741 9.72578 13.2514 11.0326 12.5118C11.0356 12.5095 11.0387 12.507 11.0418 12.5046C10.874 12.4954 10.6879 12.4888 10.4965 12.4896C9.99739 12.4917 9.46868 12.5648 9.24243 12.7086L9.00664 12.3378C9.39985 12.0878 9.96587 12.0523 10.4947 12.0501C10.8787 12.0485 11.2438 12.0752 11.4774 12.094C11.6468 11.905 11.8078 11.6911 11.9457 11.4711C12.0694 11.2737 12.1735 11.071 12.2518 10.8808C12.1585 10.8674 12.0712 10.8407 11.9922 10.8013C11.7899 10.7004 11.6497 10.5218 11.5831 10.3229C11.4897 10.0438 11.5322 9.71745 11.7117 9.4494L10.1336 8.87934L10.1404 8.71825C10.15 8.48822 9.98442 8.05778 9.78389 7.87079C9.25732 7.37978 8.63862 7.34394 7.87813 7.04242L7.79136 7.00805L7.75588 6.92172C7.49558 6.28881 7.33938 5.84691 7.18289 5.56674C7.02634 5.28659 6.90029 5.16911 6.60962 5.08234ZM6.46782 5.59064L6.70806 5.95861C5.99834 6.42194 5.98123 6.81156 5.94561 7.21959L5.50786 7.18146C5.54448 6.76134 5.65147 6.1236 6.46782 5.59064ZM4.14844 7.5258L4.34666 7.91798C3.31477 8.43939 2.86372 9.07123 2.73826 9.63798C3.08899 9.36261 3.46335 9.21845 3.96428 9.23612L4.3363 9.24926L4.14504 9.56859C3.72346 10.2725 3.59446 10.607 3.50442 11.026C3.60249 10.9887 3.6999 10.9617 3.80029 10.9533C4.03906 10.9333 4.26763 11.0089 4.51086 11.1424L4.7428 11.2696L4.5751 11.4743C4.33149 11.7716 4.23413 11.9631 4.20342 12.1471C4.19177 12.2169 4.19233 12.293 4.19858 12.375C4.26477 12.3067 4.33481 12.2455 4.41689 12.1993C4.63967 12.0738 4.89895 12.057 5.22493 12.0862L5.18584 12.5238C4.89531 12.4979 4.74316 12.5199 4.63247 12.5822C4.52178 12.6445 4.41494 12.7726 4.26919 13.0312L3.99941 13.51L3.86475 12.9772C3.77844 12.6356 3.72212 12.3616 3.76997 12.0748C3.80625 11.8573 3.90264 11.6507 4.06299 11.4219C3.97944 11.395 3.90732 11.3853 3.83696 11.3912C3.70894 11.4019 3.55444 11.4659 3.32512 11.6159L2.90117 11.8933L2.98838 11.3942C3.09294 10.7958 3.17244 10.4118 3.56426 9.69769C3.22156 9.76019 2.9926 9.9497 2.65098 10.3201L2.3228 10.6758L2.27104 10.1946C2.17756 9.32648 2.68159 8.26701 4.14844 7.5258ZM7.65691 8.18439C8.09119 8.37609 8.61492 8.53353 9.04507 8.59008L9.13557 9.02016C9.04153 9.03993 8.95881 9.03588 8.87041 9.02186C8.83713 9.24223 8.63757 9.40604 8.41289 9.40604C8.16658 9.40604 7.95034 9.20927 7.95034 8.95692C7.95034 8.89711 7.96282 8.84057 7.98462 8.78888C7.76856 8.6985 7.40559 8.61852 7.28154 8.42943C7.42305 8.36806 7.64177 8.17179 7.65691 8.18439ZM12.0594 9.72128C11.9677 9.87477 11.9546 10.048 11.9999 10.1834C12.034 10.2852 12.0961 10.362 12.1884 10.4081C12.2407 10.4342 12.3056 10.4519 12.3873 10.4526C12.3947 10.4157 12.4006 10.3801 12.4045 10.3464C12.3819 10.1806 12.2445 9.94091 12.0594 9.72128Z" fill="#BD6D02"/>
</g>
</g>
<defs>
<clipPath id="clip0_2271_13608">
<rect width="12.5" height="12.5" fill="white" transform="translate(2.08398 4.24902)"/>
</clipPath>
</defs>
</svg>
