<svg width="29" height="28" viewBox="0 0 29 28" fill="none" xmlns="http://www.w3.org/2000/svg">
<path d="M21.5 17.4997C22.4283 17.4997 23.3185 17.8685 23.9749 18.5248C24.6313 19.1812 25 20.0715 25 20.9997C25 21.928 24.6313 22.8182 23.9749 23.4746C23.3185 24.131 22.4283 24.4997 21.5 24.4997C20.7755 24.5018 20.0683 24.2783 19.4767 23.8601C18.885 23.442 18.4382 22.85 18.1983 22.1664H16.8333V19.833H18.1983C18.6767 18.468 19.9717 17.4997 21.5 17.4997ZM21.5 19.833C21.1906 19.833 20.8938 19.956 20.6751 20.1748C20.4563 20.3935 20.3333 20.6903 20.3333 20.9997C20.3333 21.3091 20.4563 21.6059 20.6751 21.8247C20.8938 22.0435 21.1906 22.1664 21.5 22.1664C21.8094 22.1664 22.1062 22.0435 22.325 21.8247C22.5438 21.6059 22.6667 21.3091 22.6667 20.9997C22.6667 20.6903 22.5438 20.3935 22.325 20.1748C22.1062 19.956 21.8094 19.833 21.5 19.833ZM21.5 9.33305C21.9425 9.33305 22.3668 9.15728 22.6797 8.8444C22.9926 8.53153 23.1683 8.10718 23.1683 7.66471C23.1683 7.22224 22.9926 6.7979 22.6797 6.48502C22.3668 6.17215 21.9425 5.99638 21.5 5.99638C21.0575 5.99638 20.6332 6.17215 20.3203 6.48502C20.0075 6.7979 19.8317 7.22224 19.8317 7.66471C19.8317 8.10718 20.0075 8.53153 20.3203 8.8444C20.6332 9.15728 21.0575 9.33305 21.5 9.33305ZM21.5 2.99805C22.7377 2.99805 23.9247 3.48971 24.7998 4.36488C25.675 5.24005 26.1667 6.42704 26.1667 7.66471C26.1667 11.153 21.5 16.333 21.5 16.333C21.5 16.333 16.8333 11.153 16.8333 7.66471C16.8333 6.42704 17.325 5.24005 18.2002 4.36488C19.0754 3.48971 20.2623 2.99805 21.5 2.99805ZM10.8017 19.833H12.1667V22.1664H10.8017C10.5618 22.85 10.115 23.442 9.52335 23.8601C8.93169 24.2783 8.22451 24.5018 7.50001 24.4997C6.57176 24.4997 5.68152 24.131 5.02514 23.4746C4.36876 22.8182 4.00001 21.928 4.00001 20.9997C4.00001 19.4714 4.96835 18.1764 6.33335 17.698V16.333H8.66668V17.698C9.65835 18.048 10.4517 18.8414 10.8017 19.833ZM7.50001 19.833C7.1906 19.833 6.89385 19.956 6.67506 20.1748C6.45626 20.3935 6.33335 20.6903 6.33335 20.9997C6.33335 21.3091 6.45626 21.6059 6.67506 21.8247C6.89385 22.0435 7.1906 22.1664 7.50001 22.1664C7.80943 22.1664 8.10618 22.0435 8.32497 21.8247C8.54376 21.6059 8.66668 21.3091 8.66668 20.9997C8.66668 20.6903 8.54376 20.3935 8.32497 20.1748C8.10618 19.956 7.80943 19.833 7.50001 19.833ZM7.50001 3.49971C8.42827 3.49971 9.31851 3.86846 9.97489 4.52484C10.6313 5.18122 11 6.07146 11 6.99971C11 8.52805 10.0317 9.82305 8.66668 10.3014V11.6664H6.33335V10.3014C5.64971 10.0615 5.05773 9.61471 4.63959 9.02305C4.22146 8.43138 3.99792 7.72421 4.00001 6.99971C4.00001 6.07146 4.36876 5.18122 5.02514 4.52484C5.68152 3.86846 6.57176 3.49971 7.50001 3.49971ZM7.50001 5.83305C7.1906 5.83305 6.89385 5.95596 6.67506 6.17476C6.45626 6.39355 6.33335 6.69029 6.33335 6.99971C6.33335 7.30913 6.45626 7.60588 6.67506 7.82467C6.89385 8.04346 7.1906 8.16638 7.50001 8.16638C7.80943 8.16638 8.10618 8.04346 8.32497 7.82467C8.54376 7.60588 8.66668 7.30913 8.66668 6.99971C8.66668 6.69029 8.54376 6.39355 8.32497 6.17476C8.10618 5.95596 7.80943 5.83305 7.50001 5.83305ZM13.3333 22.1664V19.833H15.6667V22.1664H13.3333ZM8.66668 15.1664H6.33335V12.833H8.66668V15.1664Z" fill="#808080"/>
</svg>
