<svg width="28" height="28" viewBox="0 0 28 28" fill="none" xmlns="http://www.w3.org/2000/svg">
<path d="M3.75 23.167V8.50033H7.41667C7.41667 7.23227 7.86369 6.15121 8.75775 5.25716C9.65119 4.36371 10.7319 3.91699 12 3.91699C13.2681 3.91699 14.3491 4.36371 15.2432 5.25716C16.1366 6.15121 16.5833 7.23227 16.5833 8.50033H20.25V23.167H3.75ZM9.25 8.50033H14.75C14.75 7.73644 14.4826 7.08713 13.9479 6.55241C13.4132 6.01769 12.7639 5.75033 12 5.75033C11.2361 5.75033 10.5868 6.01769 10.0521 6.55241C9.51736 7.08713 9.25 7.73644 9.25 8.50033ZM5.58333 21.3337H18.4167V10.3337H5.58333V21.3337Z" fill="#808080"/>
<path d="M15.2425 14.4922C14.3485 15.3863 13.2674 15.8333 11.9993 15.8333C10.7313 15.8333 9.65054 15.3863 8.7571 14.4922C7.86304 13.5988 7.41602 12.5181 7.41602 11.25H9.24935C9.24935 12.0139 9.51671 12.6632 10.0514 13.1979C10.5862 13.7326 11.2355 14 11.9993 14C12.7632 14 13.4125 13.7326 13.9473 13.1979C14.482 12.6632 14.7493 12.0139 14.7493 11.25H16.5827C16.5827 12.5181 16.136 13.5988 15.2425 14.4922Z" fill="#808080"/>
</svg>
